<svg width="25" height="19" viewBox="0 0 25 19" fill="none" xmlns="http://www.w3.org/2000/svg">
<path d="M25 9.82507C25 10.1926 24.7009 10.4917 24.3333 10.4917L0.668374 10.4917C0.29744 10.4917 -3.84984e-07 10.1926 -4.01049e-07 9.82507C-4.17188e-07 9.45585 0.29744 9.15671 0.668374 9.15671L24.3333 9.15671C24.7009 9.15671 25 9.45585 25 9.82507Z" fill="#154F64"/>
<path d="M25 9.82507C25 10.0097 24.9231 10.1943 24.7709 10.3276L16.7802 18.8352C16.5033 19.0779 16.0811 19.0489 15.84 18.772C15.5973 18.4951 15.6229 18.0729 15.9016 17.8301L23.8923 9.32254C24.171 9.07981 24.5915 9.10716 24.8342 9.38408C24.9453 9.51228 25 9.66952 25 9.82507Z" fill="#154F64"/>
<path d="M25 9.82507C25 9.98062 24.9453 10.1379 24.8342 10.2644C24.5915 10.5413 24.171 10.5704 23.8923 10.3276L15.9016 1.81835C15.6247 1.57562 15.5973 1.15512 15.84 0.876489C16.0811 0.599571 16.5033 0.572202 16.7802 0.813222L24.7709 9.32254C24.9231 9.45416 25 9.63875 25 9.82507Z" fill="#154F64"/>
</svg>
