<svg version="1.2" xmlns="http://www.w3.org/2000/svg" viewBox="0 0 1440 184" width="1440" height="184"><style>.a{fill:#b4a192}.b{fill:#fff}.c{fill:#231f20}.d{fill:#f8f6f4}</style><path class="a" d="m85.3 174.7c-3.4-0.3-6.9-1.1-10.4-2.7-22.7-10.4-32.6-42.1-24.5-78.8 3.4-15.3 12.3-33.8 23.2-48.4 9.5-12.6 24.2-27.4 40.7-25.9 16.5 1.4 24.4 10.4 27.2 15.6 3.6 6.7 3.9 14.6 0.8 20.2-5.4 9.9-18.4 16.6-32.8 10.4-4.6-2-6.8-7.3-4.8-11.9 2-4.7 7.4-6.8 12-4.8 5.9 2.5 8.5-0.3 9-2.1 0.5-1.7 0.4-2.7-0.9-4.4-2-2.9-6.3-4.3-12.1-4.9-12.2-1.1-38.4 32.5-44.5 60.1-6 27.3-0.1 47.8 14.7 52.7 11.4 3.8 32.8-5.6 45.1-14.3 18.1-12.8 45.1-11.3 70.3-0.4 9.8 4.2 25.1 3.6 34.6 0.5 12.9-4.1 23-11.8 30.1-16.8 4-2.9 9.6-8.2 11.5-10.1 3.7-3.5 9.2-7.2 12.9-4.1 3 2.5 2.6 7.1-0.4 11.1-0.8 1.1-7.2 11.1-14.3 16.1-10.6 7.6-23.7 15.2-36.3 19.3-18.4 6-33.8 6.1-45.9 0.4-21.1-9.9-44.4-7.8-55.6-0.8-1.6 1-4 2.9-6.6 4.9-10.1 8.1-26 20.7-43 19.2"/><path class="b" d="m117.3 59.6c0.8-1 2.4-1.2 3.4-0.3 1 0.8 1.1 2.4 0.3 3.4-0.9 1-2.4 1.1-3.4 0.3-1-0.9-1.2-2.4-0.3-3.4z"/><path class="b" d="m114.4 52.8c0.8-1 2.4-1.1 3.4-0.3 1 0.9 1.1 2.4 0.3 3.4-0.9 1-2.4 1.2-3.4 0.3-1-0.8-1.2-2.3-0.3-3.4z"/><path class="c" d="m115.5 53.8c0.3-0.5 0.9-0.5 1.4-0.2 0.4 0.4 0.4 1 0.1 1.4-0.4 0.4-1 0.5-1.4 0.1-0.4-0.3-0.5-0.9-0.1-1.3z"/><path class="c" d="m118.4 60.5c0.3-0.4 0.9-0.5 1.4-0.1 0.4 0.3 0.4 0.9 0.1 1.4-0.4 0.4-1 0.4-1.4 0.1-0.4-0.4-0.5-1-0.1-1.4z"/><path class="d" d="m-111 124.7c0-42.8 44.2-74.1 85.9-64.2 114.2 27.2 338.7 59.3 650 3.3 909.9-163.8 907.1 85.2 907.1 85.2 0 19.9-16.1 36-36 36h-1567c-22.1 0-40-17.9-40-40z"/></svg>