<svg width="24" height="16" viewBox="0 0 24 16" fill="none" xmlns="http://www.w3.org/2000/svg">
<path d="M0.636514 1.36047C0.636514 1.5897 0.636514 1.81874 0.636514 2.04797C0.636514 2.64262 0.636514 3.23746 0.636514 3.83212C0.636514 4.65375 0.636514 5.47519 0.636514 6.29673C0.636514 7.21013 0.636514 8.12353 0.636514 9.03695C0.636514 9.89481 0.636514 10.7526 0.636514 11.6106C0.636514 12.2779 0.636514 12.9453 0.636514 13.6125C0.636514 13.9506 0.636514 14.2884 0.636514 14.6265C0.636514 15.0131 0.793877 15.3727 1.10058 15.5771C1.26613 15.6874 1.45486 15.7257 1.64529 15.7257C1.86045 15.7257 2.07561 15.7257 2.29076 15.7257C2.71596 15.7257 3.14115 15.7257 3.56635 15.7257C4.15488 15.7257 4.74357 15.7257 5.3321 15.7257C6.04303 15.7257 6.75397 15.7257 7.46491 15.7257C8.25563 15.7257 9.04635 15.7257 9.8369 15.7257C10.6648 15.7257 11.4925 15.7257 12.3204 15.7257C13.1427 15.7257 13.9649 15.7257 14.7874 15.7257C15.5616 15.7257 16.3359 15.7257 17.1101 15.7257C17.7965 15.7257 18.4829 15.7257 19.1693 15.7257C19.7189 15.7257 20.2686 15.7257 20.8182 15.7257C21.1919 15.7257 21.5656 15.7257 21.9392 15.7257C22.0941 15.7257 22.2493 15.7287 22.4043 15.7257C22.9321 15.7158 23.353 15.259 23.3633 14.6765C23.3643 14.6124 23.3633 14.5479 23.3633 14.4837C23.3633 14.0479 23.3633 13.6122 23.3633 13.1764C23.3633 12.4431 23.3633 11.71 23.3633 10.9769C23.3633 10.0922 23.3633 9.20745 23.3633 8.32271C23.3633 7.42261 23.3633 6.52253 23.3633 5.62245C23.3633 4.84584 23.3633 4.06923 23.3633 3.2928C23.3633 2.77863 23.3633 2.26445 23.3633 1.75027C23.3633 1.6349 23.3636 1.51973 23.3633 1.40436C23.3622 1.00255 23.1844 0.615932 22.8491 0.430032C22.6078 0.296282 22.3637 0.311664 22.1061 0.311664C21.7781 0.311664 21.4499 0.311664 21.1219 0.311664C20.6056 0.311664 20.0894 0.311664 19.573 0.311664C18.9157 0.311664 18.2585 0.311664 17.6013 0.311664C16.8436 0.311664 16.0861 0.311664 15.3287 0.311664C14.5134 0.311664 13.6983 0.311664 12.883 0.311664C12.0527 0.311664 11.2225 0.311664 10.3922 0.311664C9.58953 0.311664 8.7867 0.311664 7.98387 0.311664C7.24821 0.311664 6.51256 0.311664 5.7769 0.311664C5.15752 0.311664 4.53814 0.311664 3.91875 0.311664C3.45503 0.311664 2.99113 0.311664 2.52723 0.311664C2.26144 0.311664 1.99565 0.311664 1.72986 0.311664C1.68536 0.311664 1.64052 0.310913 1.59602 0.311664C1.06666 0.320855 0.648789 0.778757 0.636514 1.36047C0.632763 1.54299 0.780406 1.69812 0.943393 1.69812C1.11303 1.69812 1.24652 1.54355 1.25027 1.36047C1.25078 1.33833 1.25113 1.31619 1.25317 1.29406C1.25249 1.301 1.2455 1.34152 1.25351 1.30306C1.26101 1.26667 1.2692 1.23009 1.28215 1.19558C1.26357 1.24547 1.29323 1.17813 1.30159 1.16293C1.31131 1.1453 1.32171 1.12711 1.33313 1.11097C1.31301 1.13911 1.32409 1.1226 1.33995 1.1076C1.35393 1.09409 1.36705 1.07815 1.38086 1.06445C1.37677 1.06839 1.34574 1.09165 1.37473 1.06914C1.40184 1.04794 1.43065 1.02956 1.46048 1.01305C1.41752 1.03688 1.47821 1.00686 1.49492 1.0018C1.51368 0.995983 1.53294 0.990917 1.55204 0.986978C1.5193 0.993731 1.53601 0.987917 1.55937 0.987729C1.5771 0.987729 1.59483 0.987165 1.61239 0.986978C1.67393 0.986603 1.73548 0.986978 1.79703 0.986978C2.08805 0.986978 2.3789 0.986978 2.66993 0.986978C3.15036 0.986978 3.6308 0.986978 4.11123 0.986978C4.73658 0.986978 5.36176 0.986978 5.98711 0.986978C6.72158 0.986978 7.45604 0.986978 8.1905 0.986978C8.99009 0.986978 9.78968 0.986978 10.5893 0.986978C11.4126 0.986978 12.2358 0.986978 13.0591 0.986978C13.8613 0.986978 14.6633 0.986978 15.4652 0.986978C16.212 0.986978 16.9585 0.986978 17.7053 0.986978C18.3513 0.986978 18.9974 0.986978 19.6435 0.986978C20.1477 0.986978 20.6516 0.986978 21.1558 0.986978C21.4765 0.986978 21.797 0.986978 22.1177 0.986978C22.1961 0.986978 22.2747 0.986978 22.3533 0.986978C22.3698 0.986978 22.3864 0.986603 22.4029 0.986978C22.4053 0.986978 22.4077 0.986978 22.4099 0.986978C22.4302 0.987353 22.4503 0.987917 22.4704 0.989981C22.4152 0.984165 22.5025 1.0018 22.5188 1.00649C22.5326 1.01043 22.5468 1.01606 22.5599 1.02187C22.5118 1.0003 22.5569 1.02187 22.5647 1.02768C22.5765 1.03613 22.5894 1.04382 22.6015 1.0517C22.6126 1.05901 22.6566 1.10216 22.6189 1.06445C22.64 1.08546 22.6598 1.10741 22.6791 1.13048C22.644 1.08809 22.6965 1.16087 22.7053 1.17663C22.7129 1.18995 22.7193 1.2042 22.7256 1.21827C22.7192 1.20402 22.7117 1.16312 22.7275 1.2254C22.7326 1.24585 22.7517 1.35109 22.7466 1.29406C22.7488 1.31901 22.7492 1.34396 22.7495 1.36891C22.7498 1.39592 22.7495 1.42312 22.7495 1.45013C22.7495 1.58651 22.7495 1.72288 22.7495 1.85907C22.7495 2.40026 22.7495 2.94126 22.7495 3.48245C22.7495 4.26863 22.7495 5.05481 22.7495 5.84099C22.7495 6.73704 22.7495 7.6331 22.7495 8.52915C22.7495 9.39624 22.7495 10.2633 22.7495 11.1304C22.7495 11.8415 22.7495 12.5527 22.7495 13.2638C22.7495 13.6797 22.7495 14.0956 22.7495 14.5117C22.7495 14.5882 22.7534 14.667 22.7466 14.7433C22.7517 14.6857 22.7364 14.7788 22.7318 14.7966C22.7279 14.8118 22.7231 14.8272 22.7178 14.8418C22.7244 14.824 22.7413 14.7992 22.7125 14.8471C22.6968 14.8733 22.6844 14.9016 22.6666 14.9264C22.6994 14.8803 22.6314 14.9605 22.6189 14.9729C22.6552 14.9365 22.5921 14.9917 22.5771 15.0018C22.565 15.0101 22.5521 15.0172 22.5393 15.0241C22.5446 15.0213 22.58 15.008 22.5463 15.0208C22.5141 15.0331 22.4813 15.0435 22.4477 15.0504C22.4997 15.0395 22.4276 15.05 22.4099 15.0504C22.4012 15.0506 22.3927 15.0504 22.384 15.0504C22.1992 15.0513 22.0142 15.0504 21.8294 15.0504C21.435 15.0504 21.0409 15.0504 20.6465 15.0504C20.0872 15.0504 19.5278 15.0504 18.9684 15.0504C18.2802 15.0504 17.5919 15.0504 16.9038 15.0504C16.1305 15.0504 15.357 15.0504 14.5836 15.0504C13.7667 15.0504 12.9495 15.0504 12.1325 15.0504C11.3169 15.0504 10.5011 15.0504 9.68551 15.0504C8.90519 15.0504 8.12486 15.0504 7.34454 15.0504C6.64486 15.0504 5.945 15.0504 5.24532 15.0504C4.66754 15.0504 4.08992 15.0504 3.51214 15.0504C3.09785 15.0504 2.68357 15.0504 2.26928 15.0504C2.06009 15.0504 1.85073 15.0504 1.64137 15.0504C1.62603 15.0504 1.61051 15.0506 1.59517 15.0504C1.58324 15.0502 1.57096 15.0497 1.55937 15.0497C1.50583 15.0495 1.57352 15.0611 1.52322 15.0436C1.50379 15.0369 1.43406 15.0118 1.45026 15.0198C1.41104 15.0001 1.37387 14.962 1.33995 14.9298C1.30176 14.8938 1.34336 14.948 1.31693 14.9009C1.30653 14.8823 1.27056 14.812 1.27806 14.8306C1.29102 14.8624 1.27312 14.815 1.27226 14.8118C1.26715 14.7915 1.2622 14.7701 1.25641 14.7501C1.25556 14.7473 1.2472 14.6949 1.25181 14.7309C1.25607 14.7651 1.25095 14.7 1.25078 14.6936C1.25044 14.6844 1.25044 14.6752 1.25027 14.666C1.24993 14.6368 1.25027 14.6075 1.25027 14.5782C1.25027 14.2036 1.25027 13.829 1.25027 13.4544C1.25027 12.7695 1.25027 12.0846 1.25027 11.3998C1.25027 10.5397 1.25027 9.67979 1.25027 8.81984C1.25027 7.92392 1.25027 7.028 1.25027 6.13211C1.25027 5.327 1.25027 4.52188 1.25027 3.71656C1.25027 3.14142 1.25027 2.56628 1.25027 1.99113C1.25027 1.78103 1.25027 1.57075 1.25027 1.36047C1.25027 1.17813 1.10928 1.02281 0.943393 1.02281C0.776996 1.02281 0.636514 1.17738 0.636514 1.36047Z" fill="currentColor"/>
<path d="M22.6857 0.538624C22.3395 0.816628 21.9932 1.09463 21.6469 1.37264C20.8322 2.02657 20.0174 2.68068 19.2026 3.3348C18.2358 4.11085 17.269 4.8869 16.3021 5.66314C15.5184 6.29232 14.7345 6.92153 13.9508 7.55075C13.725 7.73191 13.4993 7.91308 13.2737 8.09423C13.0651 8.26177 12.8543 8.41276 12.6266 8.49563C12.0391 8.70939 11.3965 8.62649 10.8804 8.2184C10.7309 8.10018 10.5829 7.97956 10.4341 7.86014C9.73782 7.30121 9.04155 6.74227 8.34528 6.18332C7.39719 5.42227 6.44928 4.66123 5.50119 3.90019C4.61636 3.1898 3.73135 2.4794 2.84635 1.76901C2.35858 1.37733 1.87065 0.985831 1.38288 0.594149C1.35986 0.575578 1.33668 0.557195 1.31366 0.538624C1.17966 0.430948 0.971491 0.513674 0.893749 0.659804C0.802878 0.830696 0.869539 1.01397 1.00388 1.12164C1.35407 1.40284 1.70408 1.68385 2.05426 1.96485C2.87636 2.62497 3.69862 3.2849 4.52088 3.94502C5.48755 4.72107 6.45405 5.49694 7.42072 6.27291C8.20564 6.90302 8.99057 7.53314 9.7755 8.16326C10.2484 8.54281 10.7045 8.98252 11.2756 9.16963C11.9809 9.40067 12.817 9.28333 13.4214 8.8075C13.5654 8.69406 13.7076 8.57765 13.8508 8.46275C14.5394 7.90989 15.2282 7.35703 15.917 6.80416C16.8719 6.03754 17.827 5.27089 18.7819 4.50422C19.6711 3.79045 20.5604 3.0765 21.4495 2.36272C21.9419 1.96767 22.4341 1.57242 22.9263 1.17736C22.9495 1.15879 22.9725 1.14022 22.9955 1.12164C23.1293 1.01435 23.1953 0.828445 23.1056 0.659804C23.0284 0.514612 22.8204 0.430573 22.6857 0.538624Z" fill="currentColor"/>
<path d="M1.37596 15.4458C1.65658 15.1937 1.93703 14.9418 2.21749 14.6897C2.88614 14.0888 3.5548 13.488 4.22345 12.8873C5.03139 12.1614 5.83934 11.4356 6.64711 10.7096C7.34526 10.0824 8.04341 9.45512 8.74156 8.82784C9.07998 8.52371 9.43169 8.23105 9.75971 7.913C9.76432 7.90852 9.76926 7.90437 9.77403 7.90006C9.899 7.78788 9.88775 7.53743 9.77403 7.42253C9.64139 7.28856 9.47329 7.30285 9.34014 7.42253C9.05952 7.67458 8.77906 7.92662 8.49861 8.17866C7.82996 8.77945 7.1613 9.38027 6.49248 9.98106C5.6847 10.707 4.87676 11.4328 4.06899 12.1587C3.37084 12.786 2.67269 13.4131 1.97454 14.0404C1.63612 14.3447 1.2844 14.6373 0.956384 14.9553C0.951781 14.9598 0.94684 14.9639 0.942066 14.9682C0.817098 15.0804 0.82818 15.3308 0.942066 15.4458C1.07471 15.5798 1.24281 15.5655 1.37596 15.4458Z" fill="currentColor"/>
<path d="M23.1224 14.9684C22.8419 14.7163 22.5613 14.4644 22.2808 14.2123C21.6122 13.6116 20.9435 13.0108 20.2749 12.4099C19.4669 11.684 18.6592 10.9582 17.8512 10.2323C17.1531 9.60504 16.4551 8.97778 15.7569 8.35051C15.4175 8.04559 15.0794 7.73893 14.7388 7.43568C14.7339 7.43139 14.7291 7.42705 14.7243 7.42272C14.6002 7.3112 14.4101 7.27914 14.2902 7.42272C14.1873 7.54636 14.1576 7.78096 14.2902 7.90024C14.5709 8.15228 14.8513 8.40435 15.1319 8.65637C15.8006 9.25716 16.4693 9.85798 17.1379 10.4588C17.9457 11.1846 18.7536 11.9106 19.5614 12.6363C20.2595 13.2636 20.9577 13.8909 21.6558 14.5182C21.9951 14.823 22.3334 15.1297 22.674 15.4331C22.6788 15.4374 22.6835 15.4417 22.6883 15.446C22.8126 15.5574 23.0025 15.5895 23.1224 15.446C23.2255 15.3224 23.2552 15.0877 23.1224 14.9684Z" fill="currentColor"/>
</svg>
