<svg width="24" height="48" viewBox="0 0 12 24" fill="none" xmlns="http://www.w3.org/2000/svg">
<path d="M7.66561 13.4193V23.1125H3.84854V13.4193V13.1693H3.59854H0.340836V9.55624H3.59854H3.84854V9.30624V6.17147C3.84854 4.43621 4.34957 3.12072 5.20376 2.24009C6.0573 1.36014 7.29164 0.885254 8.81678 0.885254C9.55878 0.885254 10.3211 0.953575 10.9002 1.02244C11.1891 1.05681 11.4313 1.09117 11.6009 1.11689C11.6214 1.11999 11.6407 1.12296 11.659 1.12579V4.16499H10.167C9.25221 4.16499 8.61215 4.45996 8.2063 4.94333C7.80714 5.41873 7.66561 6.03971 7.66561 6.63712V9.30624V9.55624H7.91561H11.4574L10.919 13.1693H7.91561H7.66561V13.4193Z" stroke="currentColor" stroke-width="1"/>
</svg>
