<svg width="41" height="41" viewBox="0 0 31 31" fill="none" xmlns="http://www.w3.org/2000/svg">
<path d="M26.5219 13.1759C26.5219 17.2174 25.894 18.5993 24.6595 19.757C22.1573 22.1041 15.5 21.9217 15.5 21.9217C13.983 21.9402 12.4672 21.826 10.9701 21.5804C10.9701 21.5804 10.2429 26.3687 19.4331 24.0205L19.3398 26.7594C17.9393 26.9466 4.61028 31.8744 4.51405 14.71L4.47789 13.1756C4.47789 9.13411 4.51018 7.69746 6.34034 5.67684C8.64325 3.134 15.5 3.45821 15.5 3.45821C15.5 3.45821 22.3568 3.134 24.6592 5.67684C26.4892 7.69765 26.5219 9.13463 26.5219 13.1759Z" stroke="currentColor" stroke-width="1" stroke-linecap="round" stroke-linejoin="round"/>
<path d="M15.5 15.0562V11.1958C15.5 10.801 15.4222 10.4102 15.2712 10.0455C15.1201 9.68079 14.8987 9.34943 14.6196 9.07031C14.3405 8.79119 14.0091 8.56978 13.6444 8.41873C13.2797 8.26768 12.8888 8.18993 12.4941 8.18994C11.6969 8.18994 10.9324 8.50663 10.3686 9.07033C9.80495 9.63404 9.48826 10.3986 9.48826 11.1958V17.4257" stroke="currentColor" stroke-width="1" stroke-linecap="round" stroke-linejoin="round"/>
<path d="M15.5 11.1958C15.5 10.801 15.5778 10.4102 15.7288 10.0455C15.8799 9.68079 16.1013 9.34943 16.3804 9.07031C16.6595 8.79119 16.9909 8.56978 17.3556 8.41873C17.7203 8.26768 18.1112 8.18993 18.5059 8.18994C19.3031 8.18994 20.0676 8.50663 20.6313 9.07033C21.1951 9.63404 21.5117 10.3986 21.5117 11.1958V17.4257" stroke="currentColor" stroke-width="1" stroke-linecap="round" stroke-linejoin="round"/>
</svg>
