<svg width="108" height="183" viewBox="0 0 108 183" fill="none" xmlns="http://www.w3.org/2000/svg">
<path d="M211.376 97.9393C212.213 93.1952 209.095 90.588 204.363 89.7537C202.989 89.5115 200.833 90.1389 199.609 90.5949C193.544 92.8635 185.586 98.7243 185.804 114.267C186.021 129.222 183.445 131.213 173.252 136.302C160.909 142.46 147.474 139.22 137.293 127.642C128.955 118.162 120.669 95.7175 124.338 74.2574C125.976 64.6685 129.369 57.268 134.341 52.2767C142.197 58.2387 152.39 63.9199 166.648 67.0743C174.484 68.8025 183.258 67.2423 188.115 60.3415C191.349 55.7471 191.298 49.8492 187.975 44.5922C179.8 31.6353 161.647 24.7499 144.008 28.2739C141.213 28.8308 138.532 29.6387 135.988 30.6806C135.134 29.8688 134.321 29.0641 133.515 28.2817C124.831 19.8119 114.019 9.25578 97.3777 19.2014C82.5081 28.0844 81.5523 53.1404 80.4452 82.1482C79.4655 107.756 78.7121 136.9 65.1224 137.81C54.5361 138.526 48.2332 132.502 46.9139 130.821C36.3563 117.391 45.5817 84.409 52.304 62.4692C58.5302 42.1529 60.9209 33.6519 57.5718 27.2984C49.9224 12.7862 34.8171 13.7233 26.5288 17.8883C22.2344 20.0493 20.457 25.3098 22.606 29.6042C24.7651 33.9003 29.9431 35.6531 34.2357 33.5023C38.6959 31.4126 40.84 33.89 41.4309 35.8942C42.0133 37.8864 38.2778 48.8375 35.659 57.3823C26.9523 85.8163 15.0206 124.746 31.2198 145.332C36.1898 151.656 43.1917 155.62 52.1153 157.193C56.2363 157.92 60.7612 158.141 65.6938 157.835C79.3949 157.007 88.6346 147.446 93.1898 129.407C96.5715 116 97.2069 99.1279 97.8387 82.8113C98.5573 63.9802 99.7704 36.8701 106.525 32.8336C111.087 30.1108 113.455 30.6019 121.35 40.7486C114.246 48.2506 109.337 58.6589 107.173 71.3463C103.617 92.1649 107.372 126.029 122.203 142.889C137.453 160.232 159.749 165.224 178.994 155.622C198.745 145.773 200.621 128.888 200.387 112.661C200.316 107.588 202.185 104.727 203.745 103.732C205.305 102.737 210.746 101.513 211.376 97.9393ZM162.855 43.5428C169.417 45.8336 174.171 49.3381 173.459 51.3539C172.757 53.3716 166.858 53.1502 160.297 50.8491C153.734 48.5583 147.315 42.5978 147.315 42.5978C147.315 42.5978 156.284 41.24 162.845 43.541L162.855 43.5428Z" fill="#D68042"/>
<path d="M31.6263 26.9427C32.2045 25.806 33.6051 25.3602 34.7412 25.9384C35.8774 26.5166 36.3228 27.9178 35.7446 29.0545C35.1563 30.1894 33.7659 30.6371 32.6297 30.0588C31.4936 29.4806 31.0482 28.0794 31.6263 26.9427Z" fill="white"/>
<path d="M27.4989 21.2396C28.077 20.1029 29.4777 19.657 30.6138 20.2353C31.7499 20.8135 32.1953 22.2147 31.6172 23.3514C31.0288 24.4863 29.6384 24.9339 28.5023 24.3557C27.3661 23.7775 26.9207 22.3763 27.4989 21.2396Z" fill="white"/>
<path d="M28.7245 21.8617C28.9633 21.3999 29.5307 21.2165 29.9922 21.4554C30.4537 21.6942 30.6369 22.2619 30.3981 22.7236C30.1593 23.1854 29.5919 23.3687 29.1304 23.1299C28.6689 22.8911 28.4857 22.3234 28.7245 21.8617Z" fill="#231F20"/>
<path d="M32.8515 27.5648C33.0903 27.103 33.6577 26.9197 34.1192 27.1585C34.5807 27.3973 34.7639 27.965 34.5251 28.4267C34.2863 28.8885 33.7189 29.0719 33.2574 28.833C32.7959 28.5942 32.6127 28.0265 32.8515 27.5648Z" fill="#231F20"/>
</svg>
