<svg width="14" height="24" viewBox="0 0 14 24" fill="none" xmlns="http://www.w3.org/2000/svg">
<path d="M12.6309 21.7362C12.6309 22.3862 12.1022 22.9149 11.4522 22.9149H1.81028C1.16039 22.9149 0.63163 22.3862 0.63163 21.7362V2.26599C0.63163 1.61603 1.16039 1.08734 1.81028 1.08734H11.4522C12.1022 1.08734 12.6309 1.61603 12.6309 2.26599V21.7362ZM11.4522 0.637476H1.81028C0.912328 0.637476 0.181763 1.36806 0.181763 2.26599V21.7362C0.181763 22.6342 0.912328 23.3647 1.81028 23.3647H11.4522C12.3502 23.3647 13.0807 22.6342 13.0807 21.7362V2.26599C13.0807 1.36806 12.3502 0.637476 11.4522 0.637476Z" fill="currentColor"/>
<path d="M11.5353 19.8132H1.72778V3.47959H11.5353V19.8132ZM11.7422 3.06571H1.52084C1.40656 3.06571 1.3139 3.15839 1.3139 3.27265V20.0201C1.3139 20.1344 1.40656 20.2271 1.52084 20.2271H11.7422C11.8565 20.2271 11.9492 20.1344 11.9492 20.0201V3.27265C11.9492 3.15839 11.8565 3.06571 11.7422 3.06571Z" fill="currentColor"/>
<path d="M4.87245 1.94559H8.38896C8.42423 1.94559 8.47516 2.00281 8.47516 2.09243C8.47516 2.18222 8.42423 2.23944 8.38896 2.23944H4.87245C4.83718 2.23944 4.78625 2.18222 4.78625 2.09243C4.78625 2.00281 4.83718 1.94559 4.87245 1.94559ZM4.87245 2.65332H8.38896C8.66482 2.65332 8.88904 2.40175 8.88904 2.09243C8.88904 1.78328 8.66482 1.53171 8.38896 1.53171H4.87245C4.59659 1.53171 4.37238 1.78328 4.37238 2.09243C4.37238 2.40175 4.59659 2.65332 4.87245 2.65332Z" fill="currentColor"/>
<path d="M6.63085 22.134C6.31145 22.134 6.0516 21.8741 6.0516 21.5545C6.0516 21.2351 6.31145 20.9753 6.63085 20.9753C6.95026 20.9753 7.2101 21.2351 7.2101 21.5545C7.2101 21.8741 6.95026 22.134 6.63085 22.134ZM6.63085 20.5614C6.08327 20.5614 5.63773 21.007 5.63773 21.5545C5.63773 22.1023 6.08327 22.5479 6.63085 22.5479C7.17843 22.5479 7.62398 22.1023 7.62398 21.5545C7.62398 21.007 7.17843 20.5614 6.63085 20.5614Z" fill="currentColor"/>
</svg>
