<svg xmlns="http://www.w3.org/2000/svg" width="40" height="40"  version="1.1" viewBox="0 0 300 300">
  <path d="M150,299.7C67.4,299.7.3,232.6.3,150S67.4.3,150,.3s149.7,67.2,149.7,149.7-67.2,149.7-149.7,149.7ZM150,19.8c-71.8,0-130.2,58.4-130.2,130.2s58.4,130.2,130.2,130.2,130.2-58.4,130.2-130.2S221.8,19.8,150,19.8Z" fill="currentColor"/>
  <path d="M150,250.1c-5.4,0-9.8-4.4-9.8-9.8V59.7c0-5.4,4.4-9.8,9.8-9.8s9.8,4.4,9.8,9.8v180.6c0,5.4-4.4,9.8-9.8,9.8Z" fill="currentColor"/>
  <path d="M108.2,159.8h-48.5c-5.4,0-9.8-4.4-9.8-9.8s4.4-9.8,9.8-9.8h48.5c5.4,0,9.8,4.4,9.8,9.8s-4.4,9.8-9.8,9.8Z" fill="currentColor"/>
  <path d="M240.2,159.8h-48.5c-5.4,0-9.8-4.4-9.8-9.8s4.4-9.8,9.8-9.8h48.5c5.4,0,9.8,4.4,9.8,9.8s-4.4,9.8-9.8,9.8Z" fill="currentColor"/>
</svg>