<svg width="40" height="40" viewBox="0 0 24 24" fill="none" xmlns="http://www.w3.org/2000/svg">
<path d="M20.0851 18.9716C19.1671 18.5058 18.1084 18.1281 16.93 17.8457C17.4245 16.1964 17.7015 14.3132 17.7305 12.3455H22.6688C22.5906 14.7893 21.6823 17.1209 20.0851 18.9716ZM14.3207 22.4193C14.9897 21.8416 15.5996 21.0083 16.1199 19.9444C16.3404 19.4934 16.5397 19.011 16.7172 18.5028C17.7894 18.7562 18.7555 19.0901 19.5985 19.4986C18.1494 20.9656 16.3099 21.9747 14.3207 22.4193ZM4.4017 19.4986C5.2446 19.0901 6.21074 18.7562 7.28294 18.5028C7.46046 19.011 7.65972 19.4934 7.88024 19.9444C8.4006 21.0083 9.01046 21.8416 9.6795 22.4193C7.69022 21.9747 5.85071 20.9656 4.4017 19.4986ZM1.33135 12.3455H6.26969C6.29867 14.3132 6.57564 16.1964 7.07016 17.8457C5.89171 18.1281 4.83303 18.5058 3.91501 18.9716C2.31788 17.1209 1.40953 14.7893 1.33135 12.3455ZM3.91501 5.03086C4.83303 5.4967 5.89173 5.87439 7.07016 6.15676C6.57564 7.80607 6.29867 9.68899 6.26969 11.6568H1.33135C1.40956 9.21296 2.3179 6.88128 3.91501 5.03086ZM9.67947 1.58293C9.01046 2.16062 8.4006 2.99395 7.88024 4.05814C7.65972 4.5091 7.46046 4.9912 7.28294 5.49946C6.21074 5.24602 5.2446 4.91213 4.40168 4.50359C5.85071 3.03665 7.69022 2.02756 9.67947 1.58293ZM19.5985 4.50359C18.7556 4.91213 17.7894 5.24629 16.7172 5.49946C16.5397 4.9912 16.3404 4.5091 16.1199 4.05814C15.5996 2.99395 14.9897 2.16062 14.3207 1.58293C16.3099 2.02756 18.1495 3.03665 19.5985 4.50359ZM12.3444 11.6568V6.71241C13.698 6.69257 15.0107 6.55593 16.256 6.30525C16.7407 7.90139 17.0126 9.73472 17.0416 11.6568H12.3444ZM16.256 17.697C15.0107 17.4463 13.6978 17.3097 12.3444 17.2898V12.3455H17.0416C17.0126 14.2678 16.7407 16.1011 16.256 17.697ZM12.3444 22.6507V17.9788C13.6227 17.9978 14.8621 18.1248 16.0389 18.3562C15.8776 18.8085 15.6983 19.2386 15.5012 19.6416C14.6291 21.4251 13.519 22.478 12.3444 22.6507ZM11.6557 17.9788V22.6507C10.4811 22.478 9.37104 21.4251 8.49892 19.6416C8.30181 19.2386 8.12253 18.8085 7.96129 18.3562C9.1381 18.1248 10.3775 17.9978 11.6557 17.9788ZM11.6557 12.3455V17.2898C10.3023 17.3097 8.9895 17.4463 7.74413 17.697C7.25945 16.1011 6.98754 14.2678 6.95848 12.3455H11.6557ZM7.74413 6.30525C8.98942 6.55593 10.3022 6.69257 11.6557 6.71241V11.6568H6.95848C6.98754 9.73472 7.25945 7.90139 7.74413 6.30525ZM11.6557 1.35153V6.0237C10.3774 6.00442 9.13801 5.8777 7.96129 5.64602C8.12253 5.19367 8.30181 4.76365 8.49892 4.36062C9.37104 2.57715 10.4811 1.52425 11.6557 1.35153ZM12.3444 1.35153C13.519 1.52425 14.6291 2.57715 15.5012 4.36062C15.6983 4.76365 15.8776 5.19367 16.0389 5.64602C14.8621 5.8777 13.6228 6.00442 12.3444 6.0237V1.35153ZM22.6688 11.6568H17.7305C17.7015 9.68899 17.4245 7.80607 16.93 6.15676C18.1084 5.87439 19.1671 5.49671 20.0851 5.03059C21.6823 6.88128 22.5906 9.21296 22.6688 11.6568ZM20.4199 4.36943C19.3647 3.20635 18.1072 2.28927 16.6823 1.64409C15.2072 0.97632 13.6319 0.637476 12.0001 0.637476C10.3683 0.637476 8.79294 0.97632 7.31782 1.64409C5.89292 2.28927 4.63545 3.20635 3.58027 4.36943C1.68193 6.46255 0.636444 9.17274 0.636444 12.0011C0.636444 14.8295 1.68193 17.54 3.58027 19.6328C4.63542 20.7962 5.89292 21.713 7.31782 22.3581C8.79294 23.0262 10.3683 23.3647 12.0001 23.3647C13.6319 23.3647 15.2072 23.0262 16.6823 22.3581C18.1072 21.713 19.3647 20.7962 20.4199 19.6328C22.3182 17.54 23.3637 14.8295 23.3637 12.0011C23.3637 9.17274 22.3182 6.46255 20.4199 4.36943Z" fill="currentColor"/>
</svg>
