<svg width="254" height="179" viewBox="0 0 254 179" fill="none" xmlns="http://www.w3.org/2000/svg">
<path d="M42.7314 160.929C39.2996 160.629 35.82 159.76 32.3282 158.164C9.57173 147.789 -0.263373 116.105 7.86346 79.3431C11.2391 64.0528 20.0997 45.544 30.9955 31.031C40.4809 18.3902 55.2574 3.63106 71.7491 5.0739C88.2409 6.51675 96.168 15.5291 98.9327 20.7275C102.489 27.4053 102.805 35.3179 99.7374 40.8954C94.3109 50.7568 81.287 57.5024 66.9019 51.3089C62.2844 49.3215 60.1625 43.9623 62.1484 39.353C64.1353 34.7329 69.4919 32.6094 74.0986 34.5959C79.9909 37.1288 82.6699 34.2613 83.1364 32.5233C83.6028 30.7854 83.5135 29.8232 82.2689 28.0657C80.2119 25.1851 75.9698 23.7402 70.1624 23.2104C57.9032 22.0837 31.7087 55.7136 25.6228 83.2721C19.5937 110.554 25.4747 131.057 40.368 136.026C51.7015 139.805 73.0749 130.428 85.4244 121.725C103.563 108.93 130.491 110.408 155.72 121.259C165.51 125.467 180.855 124.901 190.349 121.827C203.224 117.649 213.278 110.026 220.4 104.944C224.378 102.103 229.984 96.7587 231.925 94.8895C235.607 91.3397 241.155 87.6494 244.829 90.7582C247.807 93.2639 247.374 97.8463 244.406 101.903C243.605 103.005 237.216 112.966 230.152 118.01C219.491 125.624 206.382 133.219 193.774 137.311C175.432 143.266 160.016 143.403 147.96 137.728C126.825 127.777 103.497 129.879 92.28 136.913C90.72 137.893 88.3085 139.808 85.7469 141.829C75.5901 149.877 59.7484 162.439 42.7187 160.949" fill="#B4A192"/>
<path d="M74.6934 45.7639C75.5523 44.7436 77.0722 44.5946 78.092 45.4538C79.1225 46.314 79.2606 47.8337 78.4016 48.854C77.5534 49.8752 76.0227 50.0233 75.003 49.164C73.9823 48.3155 73.8344 46.7841 74.6934 45.7639Z" fill="white"/>
<path d="M71.7931 39.0158C72.6521 37.9955 74.172 37.8465 75.1917 38.7058C76.2115 39.5651 76.3603 41.0857 75.5013 42.1059C74.6531 43.1272 73.1225 43.2753 72.1027 42.416C71.082 41.5675 70.9341 40.0361 71.7931 39.0158Z" fill="white"/>
<path d="M72.8945 39.9349C73.2451 39.5209 73.857 39.466 74.2717 39.806C74.6855 40.1567 74.7404 40.7689 74.4005 41.1838C74.0499 41.5978 73.438 41.6528 73.0233 41.3128C72.6095 40.9621 72.5546 40.3499 72.8945 39.9349Z" fill="#231F20"/>
<path d="M75.8049 46.6869C76.1555 46.2729 76.7674 46.218 77.1821 46.5579C77.5959 46.9087 77.6508 47.5209 77.3109 47.9358C76.9603 48.3498 76.3484 48.4047 75.9337 48.0648C75.5199 47.714 75.465 47.1019 75.8049 46.6869Z" fill="#231F20"/>
</svg>
