<svg width="40" height="40" viewBox="0 0 33 33" fill="none" xmlns="http://www.w3.org/2000/svg">
<path d="M29.6398 9.89591C29.4831 9.31373 29.1763 8.78291 28.75 8.35661C28.3237 7.93031 27.7929 7.62347 27.2107 7.46684C25.6195 6.85249 10.207 6.5515 5.73609 7.48444C5.15386 7.6411 4.623 7.94797 4.19667 8.37432C3.77034 8.80067 3.4635 9.33155 3.30687 9.91379C2.58871 13.0646 2.53419 19.8766 3.32447 23.0978C3.48114 23.68 3.78799 24.2108 4.21432 24.6371C4.64065 25.0634 5.17148 25.3703 5.75369 25.5269C8.90443 26.2521 23.8839 26.3542 27.2283 25.5269C27.8105 25.3703 28.3413 25.0634 28.7676 24.6371C29.1939 24.2108 29.5007 23.68 29.6574 23.0978C30.4231 19.6651 30.4776 13.2757 29.6398 9.89591Z" stroke="currentColor" stroke-width="1.5" stroke-linecap="round" stroke-linejoin="round"/>
<path d="M21.0147 16.4969L13.8331 12.3779V20.6158L21.0147 16.4969Z" fill="currentColor"/>
</svg>
